<svg width="20" height="20" viewBox="0 0 20 20" fill="none" xmlns="http://www.w3.org/2000/svg">
<path d="M17.5 0H2.5C1.12083 0 0 1.12081 0 2.49994V17.4996C0 18.8779 1.12083 19.9995 2.5 19.9995H17.5C18.8783 19.9995 20 18.8779 20 17.4996V2.49994C20 1.12081 18.8783 0 17.5 0Z" fill="#3B5999"/>
<path d="M13.75 10.0001V7.50015C13.75 6.81017 14.31 6.87517 15 6.87517H16.25V3.75024H13.75C11.6783 3.75024 10 5.42854 10 7.50015V10.0001H7.5V13.125H10V19.9998H13.75V13.125H15.625L16.875 10.0001H13.75Z" fill="white"/>
</svg>
