<svg width="20" height="20" viewBox="0 0 20 20" fill="none" xmlns="http://www.w3.org/2000/svg">
<path d="M10 19.9995C15.5228 19.9995 20 15.5225 20 9.99975C20 4.47704 15.5228 0 10 0C4.47715 0 0 4.47704 0 9.99975C0 15.5225 4.47715 19.9995 10 19.9995Z" fill="#273B7A"/>
<path d="M19.7748 12.1159L13.6607 6.00171L8.5633 6.40858L5.95947 8.7855L6.29361 13.956L12.0827 19.782C15.9229 18.9683 18.9485 15.9512 19.7748 12.1159Z" fill="#121149"/>
<path d="M10.2183 9.07988V10.996H13.2151C12.7901 12.3677 11.5117 13.364 10.0003 13.364C8.14182 13.364 6.63514 11.8575 6.63514 9.99895C6.63506 8.14057 8.14166 6.63394 10.0002 6.63394C10.8687 6.63394 11.6578 6.96584 12.2549 7.50602L13.661 6.00068C12.6964 5.11715 11.4114 4.57764 10.0002 4.57764C7.00596 4.57764 4.57861 7.00483 4.57861 9.99903C4.57861 12.9932 7.00596 15.4204 10.0002 15.4204C12.9945 15.4204 15.4218 12.9932 15.4218 9.99903C15.4218 9.68537 15.3928 9.37878 15.3413 9.07988H10.2183Z" fill="#4285F4"/>
<path d="M10 6.63405C10.8686 6.63405 11.6577 6.96596 12.2547 7.50615L13.6608 6.00078C12.6963 5.11716 11.4113 4.57764 10 4.57764C7.92356 4.57764 6.12066 5.74543 5.20996 7.45955L6.86449 8.78457C7.35207 7.52716 8.57035 6.63405 10 6.63405Z" fill="#EA4335"/>
<path d="M6.63509 9.99958C6.63509 9.57079 6.71837 9.16226 6.86465 8.78514L5.21013 7.46021C4.8076 8.21784 4.57861 9.08184 4.57861 9.99962C4.57861 10.9216 4.80951 11.7895 5.21552 12.5497L6.86024 11.2019C6.71696 10.828 6.63509 10.4238 6.63509 9.99958Z" fill="#FBBC05"/>
<path d="M11.8714 12.7955C11.3362 13.1546 10.6935 13.3658 10.0006 13.3658C8.56629 13.3658 7.34492 12.467 6.86055 11.2031L5.21582 12.5509C6.1284 14.2592 7.92836 15.4221 10.0005 15.4221C11.3462 15.4221 12.5764 14.9308 13.5242 14.1191L11.8714 12.7955Z" fill="#34A853"/>
<path d="M15.4217 9.99954C15.4217 9.68585 15.3927 9.37924 15.3412 9.08032H10.2183V10.9966H13.215C12.9849 11.7394 12.5031 12.3703 11.871 12.7944L13.5238 14.1182C14.685 13.1238 15.4217 11.6482 15.4217 9.99954Z" fill="#4285F4"/>
</svg>
