<svg width="20" height="20" viewBox="0 0 20 20" fill="none" xmlns="http://www.w3.org/2000/svg">
<path d="M19.6576 3.57708C19.4756 1.87154 18.1285 0.524263 16.4227 0.342389C12.1451 -0.11413 7.85492 -0.11413 3.57742 0.342389C1.87164 0.524416 0.524445 1.87154 0.342407 3.57708C-0.114136 7.85434 -0.114136 12.1444 0.342407 16.4217C0.524445 18.1274 1.87164 19.4745 3.57727 19.6565C7.85477 20.113 12.1451 20.113 16.4227 19.6565C18.1285 19.4745 19.4756 18.1274 19.6576 16.4217C20.1141 12.1444 20.1141 7.85449 19.6576 3.57708Z" fill="url(#paint0_radial)"/>
<path d="M18.5699 4.30087C18.4085 2.78745 17.2131 1.592 15.6995 1.43042C11.9037 1.02547 8.09661 1.02547 4.30083 1.43042C2.78731 1.592 1.59178 2.78745 1.43019 4.30087C1.02522 8.09641 1.02522 11.9032 1.43019 15.6986C1.59178 17.2122 2.78731 18.4077 4.30083 18.5691C8.09661 18.9742 11.9037 18.9742 15.6993 18.5691C17.213 18.4077 18.4085 17.2122 18.5699 15.6986C18.9751 11.9032 18.9751 8.09641 18.5699 4.30087Z" fill="url(#paint1_linear)"/>
<path d="M0.299316 16.0066C0.313049 16.1448 0.32724 16.2831 0.342041 16.4213C0.524078 18.1269 1.87128 19.474 3.57706 19.656C7.85455 20.1125 12.1449 20.1125 16.4224 19.656C18.1281 19.474 19.4752 18.1269 19.6572 16.4213C19.672 16.2831 19.6862 16.1448 19.7001 16.0066H0.299316Z" fill="url(#paint2_linear)"/>
<path d="M19.6575 16.422C19.9029 14.1238 20.0161 11.8218 19.9978 9.52019L15.4262 4.94896C14.8551 4.297 14.0209 3.89007 13.0407 3.85483C11.0248 3.7822 9.0026 3.78586 6.98645 3.85513C5.31195 3.91281 4.14099 5.03822 3.8407 6.69232C3.78775 6.98435 3.75601 7.2802 3.71436 7.57437V12.4236C3.7374 12.5807 3.77127 12.7371 3.7818 12.8952C3.84894 13.9013 4.26245 14.7631 4.92453 15.3461L9.57663 19.9977C11.8597 20.0137 14.1428 19.9002 16.4226 19.6568C18.1284 19.4748 19.4755 18.1277 19.6575 16.422Z" fill="url(#paint3_linear)"/>
<path d="M19.6574 16.4203C19.4756 18.1257 18.1281 19.4731 16.4226 19.655C14.1431 19.8982 11.8594 20.0118 9.57672 19.9958L4.93164 15.351C5.47012 15.8223 6.17203 16.1093 6.98654 16.14C9.00223 16.2157 11.0249 16.2137 13.0406 16.1411C14.8637 16.0751 16.183 14.7259 16.2399 12.9029C16.3007 10.9672 16.3007 9.02657 16.2399 7.09095C16.214 6.24993 15.9187 5.50992 15.4292 4.94995L19.9979 9.51834C20.0159 11.8197 19.9027 14.122 19.6574 16.4203Z" fill="url(#paint4_linear)"/>
<path d="M12.3602 7.83433C11.7746 7.1967 10.9343 6.79663 10.0003 6.79663C8.2312 6.79663 6.79688 8.23089 6.79688 9.99991C6.79688 10.9339 7.19696 11.7741 7.83463 12.3597L15.2463 19.771C15.6386 19.7368 16.0309 19.6989 16.4229 19.657C18.1287 19.475 19.4759 18.1279 19.6579 16.4222C19.6997 16.0302 19.7377 15.6379 19.7719 15.2456L12.3602 7.83433Z" fill="url(#paint5_linear)"/>
<path d="M19.9613 12.1532L13.9964 6.18841C13.8572 6.00577 13.6379 5.88721 13.3906 5.88721C12.9698 5.88721 12.6284 6.22839 12.6284 6.64937C12.6284 6.89672 12.747 7.11598 12.9296 7.25514L19.8547 14.1803C19.9017 13.5048 19.9372 12.829 19.9613 12.1532Z" fill="url(#paint6_linear)"/>
<path d="M3.71436 7.57438C3.75601 7.28021 3.78775 6.98436 3.8407 6.69233C4.14084 5.03823 5.31195 3.91281 6.98645 3.85513C9.0026 3.78586 11.0248 3.7822 13.0407 3.85483C14.8632 3.92044 16.1831 5.26984 16.24 7.09285C16.3006 9.02861 16.3006 10.9691 16.24 12.9049C16.1831 14.7279 14.8637 16.0771 13.0408 16.1429C11.025 16.2157 9.00229 16.2175 6.9866 16.1418C5.16379 16.0733 3.90372 14.7208 3.7818 12.8951C3.77127 12.7372 3.7374 12.5806 3.71436 12.4235C3.71436 10.8071 3.71436 9.19065 3.71436 7.57438ZM10.0016 15.0625C10.9241 15.0625 11.8476 15.0901 12.7689 15.0561C14.2135 15.0025 15.102 14.1404 15.1357 12.6974C15.1775 10.8992 15.1775 9.09864 15.1357 7.30035C15.102 5.85757 14.2129 4.97536 12.7689 4.94469C10.9362 4.90594 9.10147 4.90624 7.26874 4.94469C5.83579 4.97475 4.94467 5.83911 4.90576 7.26602C4.85632 9.08689 4.85632 10.911 4.90576 12.7318C4.94467 14.1586 5.83579 15.003 7.26889 15.0561C8.17862 15.0899 9.09064 15.0625 10.0016 15.0625Z" fill="url(#paint7_linear)"/>
<path d="M3.71436 7.57438C3.75601 7.28021 3.78775 6.98436 3.8407 6.69233C4.14084 5.03823 5.31195 3.91281 6.98645 3.85513C9.0026 3.78586 11.0248 3.7822 13.0407 3.85483C14.8632 3.92044 16.1831 5.26984 16.24 7.09285C16.3006 9.02861 16.3006 10.9691 16.24 12.9049C16.1831 14.7279 14.8637 16.0771 13.0408 16.1429C11.025 16.2157 9.00229 16.2175 6.9866 16.1418C5.16379 16.0733 3.90372 14.7208 3.7818 12.8951C3.77127 12.7372 3.7374 12.5806 3.71436 12.4235C3.71436 10.8071 3.71436 9.19065 3.71436 7.57438ZM10.0016 15.0625C10.9241 15.0625 11.8476 15.0901 12.7689 15.0561C14.2135 15.0025 15.102 14.1404 15.1357 12.6974C15.1775 10.8992 15.1775 9.09864 15.1357 7.30035C15.102 5.85757 14.2129 4.97536 12.7689 4.94469C10.9362 4.90594 9.10147 4.90624 7.26874 4.94469C5.83579 4.97475 4.94467 5.83911 4.90576 7.26602C4.85632 9.08689 4.85632 10.911 4.90576 12.7318C4.94467 14.1586 5.83579 15.003 7.26889 15.0561C8.17862 15.0899 9.09064 15.0625 10.0016 15.0625Z" fill="white"/>
<path d="M10.0003 6.79565C8.2312 6.79565 6.79688 8.22967 6.79688 9.99859C6.79688 11.7677 8.2312 13.2017 10.0003 13.2017C11.7696 13.2017 13.2037 11.7677 13.2037 9.99859C13.2037 8.22967 11.7696 6.79565 10.0003 6.79565ZM10.0003 12.0989C8.84018 12.0989 7.89978 11.1586 7.89978 9.99859C7.89978 8.83859 8.84018 7.89829 10.0003 7.89829C11.1604 7.89829 12.1008 8.83859 12.1008 9.99859C12.1008 11.1586 11.1604 12.0989 10.0003 12.0989Z" fill="white"/>
<path d="M14.1526 6.64929C14.1526 7.07007 13.8114 7.41121 13.3906 7.41121C12.9698 7.41121 12.6284 7.07007 12.6284 6.64929C12.6284 6.22835 12.9698 5.88721 13.3906 5.88721C13.8114 5.88721 14.1526 6.22835 14.1526 6.64929Z" fill="white"/>
<defs>
<radialGradient id="paint0_radial" cx="0" cy="0" r="1" gradientUnits="userSpaceOnUse" gradientTransform="translate(4.09989 17.4775) scale(22.0565 22.0553)">
<stop stop-color="#FAE100"/>
<stop offset="0.0544" stop-color="#FADC04"/>
<stop offset="0.1167" stop-color="#FBCE0E"/>
<stop offset="0.1829" stop-color="#FCB720"/>
<stop offset="0.2514" stop-color="#FE9838"/>
<stop offset="0.3054" stop-color="#FF7950"/>
<stop offset="0.4922" stop-color="#FF1C74"/>
<stop offset="1" stop-color="#6C1CD1"/>
</radialGradient>
<linearGradient id="paint1_linear" x1="7.67095" y1="8.68974" x2="-26.2104" y2="-10.3697" gradientUnits="userSpaceOnUse">
<stop stop-color="#A1B5D8" stop-opacity="0"/>
<stop offset="0.3094" stop-color="#90A2BD" stop-opacity="0.309804"/>
<stop offset="0.7554" stop-color="#7C8B9C" stop-opacity="0.756863"/>
<stop offset="1" stop-color="#748290"/>
</linearGradient>
<linearGradient id="paint2_linear" x1="9.99965" y1="17.6534" x2="9.99965" y2="20.7708" gradientUnits="userSpaceOnUse">
<stop stop-color="#FAE100" stop-opacity="0"/>
<stop offset="0.3068" stop-color="#FCA800" stop-opacity="0.305882"/>
<stop offset="0.6275" stop-color="#FE7300" stop-opacity="0.627451"/>
<stop offset="0.8685" stop-color="#FF5200" stop-opacity="0.866667"/>
<stop offset="1" stop-color="#FF4500"/>
</linearGradient>
<linearGradient id="paint3_linear" x1="8.86212" y1="8.83388" x2="3.91277" y2="3.8842" gradientUnits="userSpaceOnUse">
<stop stop-color="#833AB4" stop-opacity="0"/>
<stop offset="1" stop-color="#833AB4"/>
</linearGradient>
<linearGradient id="paint4_linear" x1="13.7069" y1="18.2899" x2="11.2367" y2="6.64402" gradientUnits="userSpaceOnUse">
<stop stop-color="#833AB4" stop-opacity="0"/>
<stop offset="1" stop-color="#833AB4"/>
</linearGradient>
<linearGradient id="paint5_linear" x1="14.6474" y1="14.6468" x2="4.72504" y2="4.72394" gradientUnits="userSpaceOnUse">
<stop stop-color="#833AB4" stop-opacity="0"/>
<stop offset="1" stop-color="#833AB4"/>
</linearGradient>
<linearGradient id="paint6_linear" x1="15.3832" y1="8.6419" x2="12.1019" y2="5.36062" gradientUnits="userSpaceOnUse">
<stop stop-color="#833AB4" stop-opacity="0"/>
<stop offset="1" stop-color="#833AB4"/>
</linearGradient>
<linearGradient id="paint7_linear" x1="13.9709" y1="6.05679" x2="5.88099" y2="14.1472" gradientUnits="userSpaceOnUse">
<stop stop-color="#833AB4"/>
<stop offset="0.0922" stop-color="#9C3495"/>
<stop offset="0.2927" stop-color="#DC2546"/>
<stop offset="0.392" stop-color="#FD1D1D"/>
<stop offset="0.5589" stop-color="#FC6831"/>
<stop offset="0.6887" stop-color="#FC9B40"/>
<stop offset="0.7521" stop-color="#FCAF45"/>
<stop offset="0.7806" stop-color="#FDB750"/>
<stop offset="0.8656" stop-color="#FECB6A"/>
<stop offset="0.9415" stop-color="#FFD87A"/>
<stop offset="1" stop-color="#FFDC80"/>
</linearGradient>
</defs>
</svg>
