<svg width="20" height="20" viewBox="0 0 20 20" fill="none" xmlns="http://www.w3.org/2000/svg">
<path d="M16.4227 19.6571C12.1452 20.1136 7.85477 20.1136 3.57727 19.6571C1.87164 19.4751 0.524445 18.1279 0.342407 16.4222C-0.114136 12.1448 -0.114136 7.85457 0.342407 3.57718C0.524445 1.8716 1.87164 0.524431 3.57727 0.342399C7.85477 -0.114133 12.1451 -0.114133 16.4226 0.342399C18.1284 0.524431 19.4756 1.8716 19.6576 3.57718C20.1141 7.85457 20.1141 12.1448 19.6576 16.4222C19.4756 18.1279 18.1285 19.4751 16.4227 19.6571Z" fill="url(#paint0_linear)"/>
<path d="M18.5699 4.30103C18.4085 2.78753 17.2131 1.59202 15.6995 1.43043C11.9037 1.02547 8.09661 1.02547 4.30083 1.43043C2.78731 1.59202 1.59178 2.78753 1.43019 4.30103C1.02522 8.09676 1.02522 11.9038 1.43019 15.6994C1.59178 17.213 2.78731 18.4085 4.30083 18.57C8.09661 18.9751 11.9037 18.9751 15.6993 18.57C17.213 18.4085 18.4085 17.213 18.5699 15.6994C18.9751 11.9038 18.9751 8.09676 18.5699 4.30103Z" fill="url(#paint1_linear)"/>
<path d="M0.299805 16.0073C0.313538 16.1456 0.327728 16.2838 0.342529 16.422C0.524567 18.1276 1.87177 19.4747 3.57755 19.6568C7.85504 20.1133 12.1454 20.1133 16.4229 19.6568C18.1286 19.4747 19.4757 18.1276 19.6577 16.422C19.6725 16.2838 19.6867 16.1456 19.7006 16.0073H0.299805Z" fill="url(#paint2_linear)"/>
<path d="M19.9959 9.2975L15.8445 5.1463C15.3792 5.41225 14.9692 5.5598 14.6604 5.64158C14.4867 5.68812 14.345 5.71345 14.243 5.72734C13.7749 5.24746 13.1212 4.94946 12.3976 4.94946C10.974 4.94946 9.81967 6.10361 9.81967 7.52753C9.81967 7.57895 9.82105 7.62976 9.8244 7.68041C9.83127 7.80386 9.84699 7.92516 9.87125 8.04311C9.27692 8.03426 7.34516 7.87557 5.50281 6.29632C5.50266 6.29632 5.50266 6.29617 5.50266 6.29617H5.5025L4.63367 5.4272C4.63367 5.4272 3.61438 7.20618 5.11295 8.5561C5.17871 8.62949 5.25104 8.70197 5.33023 8.77322C5.33649 8.78024 5.34305 8.78711 5.3493 8.79413C5.15262 8.78085 4.56104 8.72195 4.21863 8.48011C4.21863 8.48011 4.14981 9.56742 5.05573 10.3679L5.78723 11.1056C5.56445 11.1241 5.31802 11.1197 5.14667 11.0446C5.14667 11.0446 5.29834 11.6886 5.88458 12.2041L6.90936 13.2342C6.29459 13.5923 5.21838 14.0404 3.80176 13.926L10.0183 20.0001C12.1543 19.9995 14.2902 19.8853 16.4229 19.6577C18.1287 19.4756 19.4759 18.1285 19.6579 16.4229C19.9111 14.0502 20.0235 11.6735 19.9959 9.2975Z" fill="url(#paint3_linear)"/>
<path d="M16.1984 6.14757C15.7559 6.37905 15.0894 6.48601 14.8685 6.51683C14.8666 6.50615 14.8648 6.49593 14.863 6.48571C15.6142 6.02108 15.8441 5.1463 15.8441 5.1463C15.3789 5.41226 14.9689 5.55981 14.66 5.6416C14.4864 5.68814 14.3446 5.71331 14.2427 5.72735C13.7746 5.24731 13.1209 4.94946 12.3973 4.94946C10.9737 4.94946 9.81934 6.10348 9.81934 7.52757C9.81934 7.57884 9.82071 7.6298 9.82407 7.68031C9.83093 7.80375 9.84665 7.92506 9.87091 8.04301C9.18182 8.03278 6.69449 7.82145 4.63333 5.42721C4.63333 5.42721 3.48557 7.42976 5.41519 8.7977C5.41519 8.7977 4.63333 8.77329 4.21829 8.48017C4.21829 8.48017 4.09622 10.4098 6.31866 11.0201C6.31866 11.0201 5.53726 11.2157 5.14618 11.0447C5.14618 11.0447 5.53711 12.7055 7.491 12.8278C7.491 12.8278 6.08963 14.1108 3.80127 13.9261C4.92676 14.6387 6.26114 15.0512 7.6918 15.0512C11.7145 15.0512 14.9756 11.7902 14.9756 7.76759C14.9756 7.71739 14.9751 7.66719 14.9741 7.61699C14.9751 7.58723 14.9756 7.55763 14.9756 7.52757C14.9756 7.50666 14.9751 7.48576 14.9748 7.46486C15.7185 6.96925 16.1984 6.14757 16.1984 6.14757Z" fill="white"/>
<defs>
<linearGradient id="paint0_linear" x1="6.64039" y1="2.81189" x2="11.6988" y2="13.6347" gradientUnits="userSpaceOnUse">
<stop stop-color="#00C3FF"/>
<stop offset="1" stop-color="#00B0ED"/>
</linearGradient>
<linearGradient id="paint1_linear" x1="14.2299" y1="12.2693" x2="-14.8273" y2="-3.31833" gradientUnits="userSpaceOnUse">
<stop stop-color="#00B0ED" stop-opacity="0"/>
<stop offset="1" stop-color="#00A2CE"/>
</linearGradient>
<linearGradient id="paint2_linear" x1="10.0001" y1="17.0846" x2="10.0001" y2="19.7051" gradientUnits="userSpaceOnUse">
<stop stop-color="#00B0ED" stop-opacity="0"/>
<stop offset="1" stop-color="#00A2CE"/>
</linearGradient>
<linearGradient id="paint3_linear" x1="19.1182" y1="18.831" x2="9.34784" y2="9.06044" gradientUnits="userSpaceOnUse">
<stop stop-color="#00B0ED" stop-opacity="0"/>
<stop offset="1" stop-color="#00A2CE"/>
</linearGradient>
</defs>
</svg>
